<svg width="18" height="14" viewBox="0 0 18 14" fill="none" xmlns="http://www.w3.org/2000/svg">
<path d="M17.3333 1.66066C16.7082 1.94128 16.0366 2.1309 15.3306 2.2166C16.0591 1.77503 16.6041 1.08003 16.8639 0.261302C16.1795 0.673137 15.4304 0.963023 14.6493 1.11836C14.1239 0.550172 13.4282 0.173569 12.6699 0.0470186C11.9117 -0.0795316 11.1334 0.0510517 10.456 0.418495C9.77849 0.785938 9.23972 1.36968 8.9233 2.0791C8.60689 2.78852 8.53052 3.58391 8.70606 4.3418C7.31924 4.27126 5.96255 3.90611 4.72404 3.27003C3.48554 2.63395 2.3929 1.74117 1.51704 0.649633C1.21756 1.17297 1.04536 1.77973 1.04536 2.42594C1.04502 3.00767 1.18644 3.58049 1.45705 4.09358C1.72767 4.60667 2.11912 5.04416 2.59667 5.36724C2.04283 5.34938 1.50122 5.19778 1.01691 4.92506V4.97056C1.01685 5.78647 1.29545 6.57726 1.80543 7.20877C2.3154 7.84027 3.02535 8.27359 3.8148 8.43519C3.30103 8.57605 2.76238 8.5968 2.23954 8.49587C2.46227 9.19791 2.89614 9.81181 3.48041 10.2516C4.06467 10.6915 4.77008 10.9352 5.49788 10.9487C4.2624 11.9312 2.73659 12.4642 1.1659 12.4618C0.887667 12.4619 0.609671 12.4455 0.333344 12.4125C1.92768 13.451 3.78361 14.0021 5.67907 14C12.0954 14 15.6031 8.61647 15.6031 3.9474C15.6031 3.79571 15.5994 3.6425 15.5926 3.49081C16.2749 2.99097 16.8638 2.37201 17.3318 1.66293L17.3333 1.66066Z" fill="#29D9D0"/>
</svg>
